<?xml version="1.0" standalone="no"?>
<!DOCTYPE svg PUBLIC "-//W3C//DTD SVG 20010904//EN"
 "http://www.w3.org/TR/2001/REC-SVG-20010904/DTD/svg10.dtd">
<svg version="1.0" xmlns="http://www.w3.org/2000/svg"
 width="200.000000pt" height="200.000000pt" viewBox="0 0 200.000000 200.000000"
 preserveAspectRatio="xMidYMid meet">
<metadata>
Created by potrace 1.14, written by Peter Selinger 2001-2017
</metadata>
<g transform="translate(0.000000,200.000000) scale(0.100000,-0.100000)"
fill="#000000" stroke="none">
<path d="M208 1985 c-56 -21 -121 -68 -151 -112 -59 -85 -57 -57 -57 -878 0
-748 1 -754 22 -805 28 -68 105 -143 171 -169 51 -19 74 -20 817 -18 l765 2
49 23 c65 31 130 101 155 165 19 51 20 73 18 817 -2 763 -2 765 -24 812 -29
64 -102 132 -166 157 -50 19 -76 20 -807 20 -613 -1 -762 -3 -792 -14z"/>
</g>
</svg>
